# Blender v2.79 (sub 0) OBJ File: 'castleCeiling.blend'
# www.blender.org
mtllib hexagonHatt.mtl
o Cone_Cone.001
v 0.745915 -0.307186 -0.450344
v 0.000125 -0.322949 1.029513
v 0.004647 0.338441 0.000000
v -0.891716 -0.316555 0.514919
v -0.891716 -0.316555 -0.514919
v 0.000125 -0.322949 -1.029513
v 0.891406 -0.329340 -0.514595
v 0.891406 -0.329340 0.514595
v 0.628978 -0.318800 -0.521290
v -0.490857 -0.310904 0.602104
v 0.611649 -0.318703 0.531379
v 0.726682 -0.299265 -0.438732
v -0.000343 -0.327784 1.000000
v 0.004455 0.327627 0.000000
v -0.866345 -0.321445 0.500000
v -0.866345 -0.321445 -0.500000
v -0.000343 -0.327784 -1.000000
v 0.865659 -0.334123 -0.500000
v 0.865659 -0.334123 0.500000
v 0.612639 -0.310518 -0.507748
v -0.477647 -0.302537 0.585900
v 0.595703 -0.310394 0.517526
vt 23.14376 0.36718
vt 20.0473 11.32978
vt 14.83166 2.98208
vt 13.59418 12.02452
vt 10.67976 17.7177
vt 6.9774 14.36846
vt 0.0473 11.32978
vt 5.53818 5.32602
vt 3.14376 0.36718
vt 23.14376 0.36718
vt 14.83166 2.98208
vt 20.0473 11.32978
vt 13.59418 12.02452
vt 10.67976 17.7177
vt 6.9774 14.36846
vt 5.53818 5.32602
vt 0.0473 11.32978
vt 3.14376 0.36718
vn -0.2920 0.8053 0.5160
vn -0.5900 0.8074 -0.0000
vn -0.2920 0.8053 -0.5160
vn 0.3038 0.8010 -0.5159
vn 0.6016 0.7988 0.0000
vn 0.3038 0.8010 0.5159
vn 0.2959 -0.7996 -0.5226
vn 0.5976 -0.8018 0.0000
vn 0.2959 -0.7996 0.5226
vn -0.3076 -0.7952 0.5226
vn -0.6093 -0.7929 0.0000
vn -0.3076 -0.7952 -0.5226
vn -0.1008 -0.9816 0.1624
vn -0.1893 -0.9819 0.0000
vn -0.0975 -0.9829 -0.1564
vn 0.0851 -0.9835 -0.1598
vn 0.1826 -0.9832 0.0000
vn 0.0886 -0.9822 0.1656
vn -0.0975 -0.9829 0.1564
vn -0.1008 -0.9816 -0.1624
vn 0.0886 -0.9822 -0.1656
vn 0.0851 -0.9835 0.1598
usemtl Material.003
s off
f 2/1/1 3/2/1 4/3/1
f 4/3/2 3/2/2 5/4/2
f 5/4/3 3/2/3 6/5/3
f 6/5/4 3/2/4 7/6/4
f 7/6/5 3/7/5 8/8/5
f 8/8/6 3/7/6 2/9/6
f 13/10/7 15/11/7 14/12/7
f 15/11/8 16/13/8 14/12/8
f 16/13/9 17/14/9 14/12/9
f 17/14/10 18/15/10 14/12/10
f 18/15/11 19/16/11 14/17/11
f 19/16/12 13/18/12 14/17/12
f 4/3/13 13/10/13 2/1/13
f 5/4/14 15/11/14 4/3/14
f 5/4/15 17/14/15 16/13/15
f 6/5/16 18/15/16 17/14/16
f 8/8/17 18/15/17 7/6/17
f 2/9/18 19/16/18 8/8/18
f 4/3/19 15/11/19 13/10/19
f 5/4/14 16/13/14 15/11/14
f 5/4/20 6/5/20 17/14/20
f 6/5/21 7/6/21 18/15/21
f 8/8/17 19/16/17 18/15/17
f 2/9/22 13/18/22 19/16/22
