# Blender v2.90.1 OBJ File: 'wall.blend'
# www.blender.org
mtllib stoneWall.mtl
o stoneWall
v 0.100000 1.388929 1.000000
v 0.100000 -0.011071 -1.000000
v 0.100000 1.388929 -1.000000
v -0.100000 1.388929 1.000000
v 0.100000 -0.011071 1.000000
v -0.100000 1.388929 -1.000000
v -0.100000 -0.011071 1.000000
v -0.100000 -0.011071 -1.000000
vt 0.160525 1.695863
vt 2.494420 0.159202
vt 2.511035 1.681896
vt 0.870330 2.126935
vt 2.518152 2.334067
vt 0.872697 2.343845
vt 0.143910 0.173169
vt 2.477813 -1.362772
vt 2.494420 0.159202
vt -1.518152 -1.339027
vt 0.129670 -1.131894
vt -1.515785 -1.122117
vt 2.511035 1.681896
vt 0.162900 1.913494
vt 0.160525 1.695863
vt 2.513410 1.899527
vt 0.165275 2.131124
vt 0.162900 1.913494
vt 0.143910 0.173169
vt 2.515785 2.117157
vt 0.127303 -1.348805
vt 0.127303 -1.348805
vt 2.513410 1.899527
vt 2.515785 2.117157
vn 0.8165 0.4082 0.4083
vn 0.8165 -0.4082 -0.4083
vn 0.3333 0.6667 -0.6666
vn -0.3333 0.6667 0.6667
vn 0.3333 -0.6667 0.6667
vn 0.8165 0.4082 0.4082
vn -0.8165 0.4082 -0.4083
vn -0.8165 -0.4082 0.4083
vn -0.3333 0.6667 0.6666
vn 0.3333 0.6667 -0.6667
vn -0.3333 -0.6667 -0.6667
vn -0.8165 0.4082 -0.4082
vn 0.8165 -0.4082 -0.4082
vn 0.3333 -0.6667 0.6666
vn -0.8165 -0.4082 0.4082
vn -0.3333 -0.6667 -0.6666
usemtl stonewallmaterial
s 1
f 1/1/1 2/2/2 3/3/3
f 4/4/4 5/5/5 1/6/6
f 6/7/7 7/8/8 4/9/9
f 3/10/10 8/11/11 6/12/12
f 5/13/5 8/14/11 2/15/13
f 4/16/4 3/17/10 6/18/12
f 1/1/1 5/19/14 2/2/2
f 4/4/4 7/20/15 5/5/5
f 6/7/7 8/21/16 7/8/8
f 3/10/10 2/22/13 8/11/11
f 5/13/5 7/23/15 8/14/11
f 4/16/4 1/24/6 3/17/10
