# Blender v2.90.0 OBJ File: ''
# www.blender.org
mtllib navQuad.mtl
o Plane.001_Plane.002
v 0.480000 0.000000 0.480000
v 0.500000 0.000000 0.480000
v 0.480000 0.000000 -0.480000
v 0.500000 0.000000 -0.480000
v 0.500000 0.000000 0.500000
v 0.500000 0.000000 0.480000
v -0.500000 0.000000 0.500000
v -0.500000 0.000000 0.480000
v -0.500000 0.000000 0.480000
v -0.480000 0.000000 0.480000
v -0.500000 0.000000 -0.480000
v -0.480000 0.000000 -0.480000
v 0.500000 0.000000 -0.480000
v 0.500000 0.000000 -0.500000
v -0.500000 0.000000 -0.480000
v -0.500000 0.000000 -0.500000
vt 0.000000 0.000000
vt 1.000000 0.000000
vt 1.000000 1.000000
vt 0.000000 1.000000
vt 0.000000 0.000000
vt 1.000000 0.000000
vt 1.000000 1.000000
vt 0.000000 1.000000
vt 0.000000 0.000000
vt 1.000000 0.000000
vt 1.000000 1.000000
vt 0.000000 1.000000
vt 0.000000 0.000000
vt 1.000000 0.000000
vt 1.000000 1.000000
vt 0.000000 1.000000
vn 0.0000 1.0000 0.0000
usemtl navQuadMat
s off
f 1/1/1 2/2/1 4/3/1 3/4/1
f 5/5/1 6/6/1 8/7/1 7/8/1
f 9/9/1 10/10/1 12/11/1 11/12/1
f 13/13/1 14/14/1 16/15/1 15/16/1
