# Blender v2.90.1 OBJ File: 'woodenBox.blend'
# www.blender.org
mtllib woodenBox.mtl
o Cube
v -1.000000 -1.000000 1.000000
v -1.000000 1.000000 1.000000
v -1.000000 -1.000000 -1.000000
v -1.000000 1.000000 -1.000000
v 1.000000 -1.000000 1.000000
v 1.000000 1.000000 1.000000
v 1.000000 -1.000000 -1.000000
v 1.000000 1.000000 -1.000000
vt 0.836217 -0.844866
vt 0.163783 -0.172433
vt 0.163783 -0.844866
vt 0.836217 -0.172433
vt 0.163783 0.500000
vt 0.836217 0.500000
vt 0.163783 1.172433
vt 0.836217 1.172433
vt 0.163783 1.844866
vt -0.508650 1.172433
vt -0.508650 0.500000
vt 1.508650 0.500000
vt 0.836217 1.844866
vt 1.508650 1.172433
vn -1.0000 0.0000 0.0000
vn 0.0000 0.0000 -1.0000
vn 1.0000 0.0000 0.0000
vn 0.0000 0.0000 1.0000
vn 0.0000 -1.0000 0.0000
vn 0.0000 1.0000 0.0000
usemtl woodbox
s off
f 2/1/1 3/2/1 1/3/1
f 4/4/2 7/5/2 3/2/2
f 8/6/3 5/7/3 7/5/3
f 6/8/4 1/9/4 5/7/4
f 7/5/5 1/10/5 3/11/5
f 4/12/6 6/8/6 8/6/6
f 2/1/1 4/4/1 3/2/1
f 4/4/2 8/6/2 7/5/2
f 8/6/3 6/8/3 5/7/3
f 6/8/4 2/13/4 1/9/4
f 7/5/5 5/7/5 1/10/5
f 4/12/6 2/14/6 6/8/6
